<svg xmlns="http://www.w3.org/2000/svg" viewBox="0 0 48 48"><defs><style>.cls-1{fill:#201602;}</style></defs><title>Asset 23ldpi</title><g id="Layer_2" data-name="Layer 2"><g id="layer_1-2" data-name="layer 1"><path class="cls-1" d="M34.51,42.87A11,11,0,0,1,29,34L31,34a9,9,0,0,0,4.49,7.16Z"/><path class="cls-1" d="M13.49,42.87l-1-1.74A9.09,9.09,0,0,0,17,34L19,34A11,11,0,0,1,13.49,42.87Z"/><path class="cls-1" d="M24,37c-7.53,0-13-6.8-13-16.16C11,12.3,16,7,24,7s13,5.3,13,13.84C37,30.2,31.53,37,24,37ZM24,9c-7,0-11,4.32-11,11.84C13,29,17.63,35,24,35s11-6,11-14.16C35,13.32,31,9,24,9Z"/><path class="cls-1" d="M18.53,20.19a20.44,20.44,0,0,1-6.9-1.26l.74-1.86c.06,0,6.38,2.47,11.18,0,4.37-2.22,10.89-2.13,13.16.19l-1.42,1.4c-1.52-1.55-7-1.73-10.84.19A13,13,0,0,1,18.53,20.19Z"/><path class="cls-1" d="M35,48H13A13,13,0,0,1,0,35V13A13,13,0,0,1,13,0H35A13,13,0,0,1,48,13V35A13,13,0,0,1,35,48ZM13,2A11,11,0,0,0,2,13V35A11,11,0,0,0,13,46H35A11,11,0,0,0,46,35V13A11,11,0,0,0,35,2Z"/></g></g></svg>